<svg id='Tattoo_Machine_24' width='24' height='24' viewBox='0 0 24 24' xmlns='http://www.w3.org/2000/svg' xmlns:xlink='http://www.w3.org/1999/xlink'><rect width='24' height='24' stroke='none' fill='#000000' opacity='0'/>


<g transform="matrix(0.42 0 0 0.42 12 12)" >
<g style="" >
<g transform="matrix(1 0 0 1 6.05 4.24)" id="Layer_1" >
<path style="stroke: none; stroke-width: 1; stroke-dasharray: none; stroke-linecap: butt; stroke-dashoffset: 0; stroke-linejoin: miter; stroke-miterlimit: 4; fill: rgb(144,202,249); fill-rule: nonzero; opacity: 1;" transform=" translate(-30.05, -28.24)" d="M 44.939 24.714 L 33.026 12.801 C 31.124000000000002 11.242 28.324000000000005 11.328 26.549000000000003 13.104000000000001 L 18.387 21.266000000000002 C 16.611 23.042 16.525 25.841 18.084 27.743000000000002 L 21.399 31.058000000000003 L 14.197000000000001 38.252 C 14.002 38.447 14.002 38.764 14.197000000000001 38.96 L 19.869 44.631 C 19.997 44.758 20.145 44.777 20.223 44.777 C 20.301 44.777 20.448999999999998 44.758 20.576999999999998 44.631 L 27.589 37.248 L 29.997 39.656 C 31.899 41.214999999999996 34.699 41.129 36.474000000000004 39.353 L 44.636 31.191000000000003 C 46.412 29.416 46.498 26.616 44.939 24.714 z" stroke-linecap="round" />
</g>
<g transform="matrix(1 0 0 1 2.5 -2.51)" id="Layer_1" >
<path style="stroke: rgb(24,25,63); stroke-width: 3; stroke-dasharray: none; stroke-linecap: round; stroke-dashoffset: 0; stroke-linejoin: round; stroke-miterlimit: 10; fill: none; fill-rule: nonzero; opacity: 1;" transform=" translate(-26.5, -21.49)" d="M 12.5 22.5 L 24.076 34.076 C 25.967 35.967 29.033 35.967 30.924 34.076 L 39.086 25.914 C 40.977 24.023000000000003 40.977 20.957 39.086 19.066000000000003 L 27.51 7.49" stroke-linecap="round" />
</g>
<g transform="matrix(1 0 0 1 -3.45 9.53)" id="Layer_1" >
<path style="stroke: rgb(24,25,63); stroke-width: 3; stroke-dasharray: none; stroke-linecap: round; stroke-dashoffset: 0; stroke-linejoin: round; stroke-miterlimit: 10; fill: none; fill-rule: nonzero; opacity: 1;" transform=" translate(-20.55, -33.53)" d="M 19.098 35.061 L 22 32" stroke-linecap="round" />
</g>
<g transform="matrix(1 0 0 1 -11.82 8.66)" id="Layer_1" >
<path style="stroke: rgb(24,25,63); stroke-width: 3; stroke-dasharray: none; stroke-linecap: round; stroke-dashoffset: 0; stroke-linejoin: round; stroke-miterlimit: 10; fill: none; fill-rule: nonzero; opacity: 1;" transform=" translate(-12.18, -32.66)" d="M 15.811 25.811 L 8.647 32.975 C 8.452 33.17 8.452 33.487 8.647 33.683 L 14.318999999999999 39.354 C 14.447 39.481 14.594999999999999 39.5 14.672999999999998 39.5 C 14.750999999999998 39.5 14.899 39.481 15.026999999999997 39.354 L 15.854999999999997 38.481" stroke-linecap="round" />
</g>
<g transform="matrix(1 0 0 1 15.13 -12.88)" id="Layer_1" >
<path style="stroke: rgb(24,25,63); stroke-width: 3; stroke-dasharray: none; stroke-linecap: round; stroke-dashoffset: 0; stroke-linejoin: round; stroke-miterlimit: 10; fill: none; fill-rule: nonzero; opacity: 1;" transform=" translate(-39.13, -11.12)" d="M 37 5.5 L 40.778 9.278 C 41.729 10.229000000000001 41.729 11.77 40.778 12.721 L 36.76 16.74" stroke-linecap="round" />
</g>
<g transform="matrix(1 0 0 1 5.75 0.75)" id="Layer_1" >
<path style="stroke: none; stroke-width: 1; stroke-dasharray: none; stroke-linecap: butt; stroke-dashoffset: 0; stroke-linejoin: miter; stroke-miterlimit: 4; fill: rgb(24,25,63); fill-rule: nonzero; opacity: 1;" transform=" translate(-29.75, -24.75)" d="M 35.061 21.439 L 33.061 19.439 C 32.475 18.853 31.526 18.853 30.94 19.439 L 24.44 25.939 C 23.854000000000003 26.524 23.854000000000003 27.475 24.44 28.06 L 26.44 30.06 C 26.733 30.352999999999998 27.117 30.499 27.501 30.499 C 27.885 30.499 28.269000000000002 30.352999999999998 28.562 30.06 L 35.062 23.56 C 35.646 22.975 35.646 22.025 35.061 21.439 z" stroke-linecap="round" />
</g>
<g transform="matrix(1 0 0 1 -0.75 -5.75)" id="Layer_1" >
<path style="stroke: none; stroke-width: 1; stroke-dasharray: none; stroke-linecap: butt; stroke-dashoffset: 0; stroke-linejoin: miter; stroke-miterlimit: 4; fill: rgb(24,25,63); fill-rule: nonzero; opacity: 1;" transform=" translate(-23.25, -18.25)" d="M 28.561 14.939 L 26.561 12.939 C 25.975 12.353 25.026 12.353 24.44 12.939 L 17.94 19.439 C 17.354000000000003 20.024 17.354000000000003 20.975 17.94 21.56 L 19.94 23.56 C 20.232 23.854 20.616 24 21 24 C 21.384 24 21.768 23.854 22.061 23.561 L 28.561 17.061 C 29.146 16.475 29.146 15.525 28.561 14.939 z" stroke-linecap="round" />
</g>
<g transform="matrix(1 0 0 1 -15.53 15.53)" id="Layer_1" >
<path style="stroke: none; stroke-width: 1; stroke-dasharray: none; stroke-linecap: butt; stroke-dashoffset: 0; stroke-linejoin: miter; stroke-miterlimit: 4; fill: rgb(24,25,63); fill-rule: nonzero; opacity: 1;" transform=" translate(-8.47, -39.53)" d="M 10.025 35.061 L 6.293 38.793 C 6.231 38.856 6.176 38.927 6.132000000000001 39.004 L 4.132000000000001 42.504 C 3.9080000000000004 42.896 3.9740000000000006 43.388 4.293 43.707 C 4.485 43.9 4.741 44 5 44 C 5.17 44 5.341 43.957 5.496 43.868 L 8.996 41.868 C 9.073 41.824000000000005 9.144 41.77 9.207 41.707 L 12.939 37.975 L 10.025 35.061 z" stroke-linecap="round" />
</g>
</g>
</g>
</svg>
